<?xml version="1.0" encoding="utf-8"?>
<!-- Generator: Adobe Illustrator 17.0.2, SVG Export Plug-In . SVG Version: 6.00 Build 0)  -->
<!DOCTYPE svg PUBLIC "-//W3C//DTD SVG 1.1//EN" "http://www.w3.org/Graphics/SVG/1.1/DTD/svg11.dtd">
<svg version="1.1" id="Layer_1" xmlns="http://www.w3.org/2000/svg" xmlns:xlink="http://www.w3.org/1999/xlink" x="0px" y="0px"
	 width="394.293px" height="219.479px" viewBox="53.916 141.021 394.293 219.479"
	 enable-background="new 53.916 141.021 394.293 219.479" xml:space="preserve">
<g>
	<g>
		<g>
			<path d="M79.352,316.555c1.383,3.383,1.565,3.893,3.077,4.822c1.292,0.775,2.387,0.775,2.387,1.283
				c0,0.318-0.188,0.355-1.095,0.355c-1.568,0-2.622-0.18-5.838-0.18h-5.505c-0.414,0-0.696-0.034-0.696-0.631
				c0-0.518,0.424-0.745,1.199-0.828c1.054-0.101,1.936-0.377,1.936-1.196c0-0.46-0.289-1.012-0.476-1.652l-1.869-6.103
				c-0.093-0.333-0.232-0.469-1.237-0.469c-1.149,0-2.671-0.178-5.835-0.178c-1.149,0-1.571,0.594-2.3,2.435
				c-0.821,1.923-2.114,4.535-2.114,5.596c0,1.325,1.065,1.468,2.16,1.568c0.464,0.04,1.383,0.173,1.383,0.867
				c0,0.592-0.414,0.771-1.429,0.771c-0.543,0-1.468-0.18-3.163-0.18c-1.838,0-3.215,0.18-5.234,0.18
				c-0.46,0-0.787-0.037-0.787-0.355c0-0.788,1.288-0.596,2.436-1.283c0.92-0.548,1.606-1.346,2.02-2.208l7.853-16.791
				c1.792-3.821,2.895-7.035,3.947-9.831h0.559L79.352,316.555L79.352,316.555L79.352,316.555z M68.744,302.036
				c-0.084-0.22-0.27-0.22-0.367-0.22c-0.182,0-0.4,0.278-0.55,0.642l-2.515,5.694c-0.189,0.452-0.378,0.879-0.378,1.232
				c0,0.323,1.796,0.372,3.31,0.372c1.787,0,3.12,0,3.12-0.278c0-0.18-0.045-0.362-0.091-0.5L68.744,302.036L68.744,302.036z"/>
			<path d="M104.932,311.592c0.452,1.057,1,2.061,1.334,2.061c0.412,0,1.19-2.2,0.723-1.096l5.97-15.057
				c0.877-2.217,1.287-2.758,3.354-2.758h7.064c0.834,0,0.914,0.19,0.914,0.684c0,0.469-0.174,0.796-2.051,0.973
				c-2.298,0.221-2.669,0.314-2.669,2.013v19.822c0,1.947,0.552,2.723,2.48,3.144c1.561,0.31,2.301,0.688,2.301,0.962
				c0,0.585-0.236,0.78-1.568,0.78c-1.155,0-3.673-0.283-5.325-0.283c-1.749,0-3.905,0.088-6.243,0.088
				c-0.553,0-0.734-0.035-0.734-0.631c0-0.605,0.542-0.833,1.79-0.916c1.653-0.15,1.882-0.692,1.882-1.244v-18.097
				c0-0.916-0.056-1.233-0.183-1.233c-0.239,0-0.687,0.927-1.332,2.569l-7.435,18.408c-0.145,0.372-0.321,0.425-0.647,0.425
				c-0.358,0-0.513-0.232-0.777-0.876l-7.904-18.104c-0.364-0.847-1.039-2.326-1.324-2.326c-0.223,0-0.223,0.265-0.223,0.458
				l-0.193,14.543c-0.047,4.511,0.415,5.295,1.979,5.478c2.519,0.267,2.935,0.361,2.935,1.047c0,0.592-0.367,0.592-1.425,0.592
				c-0.871,0-2.665-0.18-5.006-0.18c-2.017,0-3.068,0.18-4.228,0.18c-0.773,0-1.048-0.037-1.048-0.592
				c0-0.685,0.174-0.911,2.113-1.047c1.237-0.101,2.018-0.504,2.158-3.44l1.004-18.958c0.095-1.765-0.316-2.268-2.617-2.581
				c-1.827-0.282-1.934-0.504-1.934-1.056c0-0.41,0.106-0.685,0.976-0.685c0.774,0,2.616,0.274,3.811,0.274
				c1.474,0,2.614-0.19,3.075-0.19c1.839,0,1.965,0.129,2.166,0.541L104.932,311.592L104.932,311.592z"/>
			<path d="M131.411,299.061c0-1.113,0-2.623-1.465-2.765c-2.338-0.228-2.529-0.401-2.529-0.907c0-0.562,0.191-0.646,0.924-0.646
				c1.976,0,4.044,0.19,9.642,0.19c2.936,0,6.052-0.19,9.997-0.19c0.931,0,1.021,0.085,1.021,3.814c0,1.737,0,2.8-0.688,2.8
				c-0.743,0-0.782-1.334-1.7-2.853c-0.826-1.383-3.397-2.016-7.294-2.016c-2.017,0-2.115,0.131-2.115,2.662v7.12
				c0,0.916,0.186,1.233,2.936,1.233c2.615,0,3.225-0.596,3.811-1.512c0.732-1.107,1.104-2.576,1.783-2.576
				c0.701,0,0.649,1.2,0.649,1.336c0,1.065-0.375,3.527-0.375,5.278c0,1.882,0.202,2.715,0.202,3.083c0,0.404-0.145,0.63-0.699,0.63
				c-0.546,0-0.64-0.17-1.139-2.34c-0.335-1.373-1.29-2.341-5.332-2.341c-1.695,0-1.881,0.236-1.881,1.386v8.817
				c0,1.691,2.202,2.011,4.316,2.011c1.929,0,2.561-0.32,3.49-0.829c3.205-1.782,3.205-4.585,4.265-4.585
				c0.593,0,0.593,0.451,0.593,0.868c0,0.643-0.552,2.438-0.73,3.547c-0.181,0.999-0.509,2.738-0.874,2.738
				c-3.936,0-5.692-0.18-7.471-0.18h-9.833c-2.254,0-2.899,0.18-3.269,0.18c-0.588,0-1.056-0.127-1.056-0.677
				c0-0.922,1.019-0.922,1.377-0.962c3.034-0.377,3.445-0.504,3.445-5.096v-17.218H131.411z"/>
			<path d="M157.542,298.46c0-1.376-0.787-1.972-1.613-2.062c-2.616-0.282-2.751-0.331-2.751-0.876c0-0.651,0.228-0.78,0.904-0.78
				c1.997,0,6.484,0.19,7.358,0.19c0.735,0,5.099-0.19,7.065-0.19c4.043,0,8.874,1.612,8.874,6.478c0,5.966-5.479,6.106-5.479,7.022
				c0,0.362,0.141,0.594,0.422,1.057l5.779,9.922c0.785,1.279,1.841,1.974,2.806,2.239c1.827,0.513,2.022,0.55,2.022,0.879
				c0,0.365-0.052,0.497-0.459,0.497h-8.134c-0.319,0-0.677-0.132-0.861-0.497c-0.84-1.712-1.75-3.439-2.027-3.999
				c-4.225-8.496-5.233-9.135-6.927-9.135c-1.381,0-1.555,0.18-1.555,3.807v5.092c0,2.344,0.403,3.173,1.312,3.273
				c2.68,0.267,3.124,0.458,3.124,1.006c0,0.506-0.228,0.633-0.735,0.633c-1.608,0-2.563-0.18-6.604-0.18h-6.294
				c-0.861,0-1.006-0.034-1.006-0.543c0-0.605,0.415-0.833,1.422-0.916c0.879-0.101,3.028-0.183,3.028-2.111
				c0-0.926,0.329-2.445,0.329-10.234L157.542,298.46L157.542,298.46L157.542,298.46z M162.965,306.76
				c0,0.885,0.216,0.97,0.812,0.97c4.083,0,8.177-0.226,8.177-5.77c0-4.971-4.503-5.737-7.404-5.737
				c-1.413,0-1.586,1.055-1.586,3.153v7.384H162.965z"/>
			<path d="M189.72,298.979c0-1.895-0.321-2.491-2.2-2.581c-1.149-0.044-1.374-0.282-1.374-0.833c0-0.554,0.225-0.823,1.289-0.823
				c1.096,0,2.337,0.19,4.59,0.19c3.716,0,4.263-0.19,5.787-0.19c1.106,0,1.284,0.129,1.284,0.541c0,0.432-0.368,0.754-1.426,0.833
				c-2.328,0.18-2.524,0.464-2.524,2.21v20.202c0,2.375,0.826,2.472,2.484,2.849c0.958,0.217,1.512,0.361,1.512,1.096
				c0,0.416-0.085,0.543-1.058,0.543c-1.247,0-3.536-0.18-6.876-0.18c-2.636,0-4.049,0.18-5.331,0.18
				c-0.706,0-0.784-0.311-0.784-0.863c0-0.64,0.186-0.692,2.021-0.775c1.559-0.101,2.606-0.15,2.606-3.63V298.979L189.72,298.979z"
				/>
			<path d="M201.566,309.34c0-11.199,8.815-15.246,15.659-15.246c3.533,0,8.064,1.064,8.278,2.395
				c0.097,0.596,0.272,3.119,0.272,3.534c0,0.335-0.085,0.559-0.582,0.559c-1.219,0-2.919-5.101-8.099-5.101
				c-4.895,0-9.686,5.177-9.686,12.987c0,11.889,6.977,13.457,9.113,13.457c5.975,0,7.81-6.154,8.803-6.154
				c0.317,0,0.49,0.423,0.49,0.784c0,0.495-0.622,3.626-0.828,4.579c-0.435,1.882-6.15,2.526-8.153,2.526
				C209.41,323.66,201.566,318.16,201.566,309.34L201.566,309.34z"/>
			<path d="M254.041,316.555c1.387,3.383,1.57,3.893,3.088,4.822c1.273,0.775,2.383,0.775,2.383,1.283
				c0,0.318-0.182,0.355-1.109,0.355c-1.557,0-2.605-0.18-5.826-0.18h-5.501c-0.417,0-0.693-0.034-0.693-0.631
				c0-0.518,0.404-0.745,1.196-0.828c1.05-0.101,1.927-0.377,1.927-1.196c0-0.46-0.279-1.012-0.466-1.652l-1.87-6.103
				c-0.094-0.333-0.251-0.469-1.246-0.469c-1.157,0-2.664-0.178-5.833-0.178c-1.132,0-1.558,0.594-2.284,2.435
				c-0.845,1.923-2.123,4.535-2.123,5.596c0,1.325,1.065,1.468,2.161,1.568c0.458,0.04,1.375,0.173,1.375,0.867
				c0,0.592-0.413,0.771-1.413,0.771c-0.555,0-1.479-0.18-3.184-0.18c-1.821,0-3.213,0.18-5.225,0.18
				c-0.468,0-0.788-0.037-0.788-0.355c0-0.788,1.285-0.596,2.437-1.283c0.92-0.548,1.605-1.346,2.02-2.208l7.843-16.791
				c1.796-3.821,2.908-7.035,3.964-9.831h0.551L254.041,316.555L254.041,316.555L254.041,316.555z M243.435,302.036
				c-0.084-0.22-0.268-0.22-0.358-0.22c-0.176,0-0.412,0.278-0.544,0.642L240,308.152c-0.182,0.452-0.374,0.879-0.374,1.232
				c0,0.323,1.799,0.372,3.304,0.372c1.801,0,3.13,0,3.13-0.278c0-0.18-0.044-0.362-0.101-0.5L243.435,302.036L243.435,302.036z"/>
			<path d="M266.441,299.284c0-2.107-0.541-2.424-3.707-2.886c-0.65-0.103-0.738-0.177-0.738-0.833c0-0.312,0.088-0.633,0.738-0.633
				c6.514,0,7.518-0.062,9.268-0.19l11.109,13.586c3.396,4.134,5.01,5.415,5.641,6.058c0.189,0.194,0.273,0.238,0.363,0.238
				c0.141,0,0.244-0.094,0.244-0.19v-14.727c0-2.798-0.334-3.126-3.68-3.308c-0.824-0.044-0.955-0.225-0.955-0.791
				c0-0.544,0.131-0.949,1.186-0.949c1.062,0,2.807,0.169,4.264,0.169c2.48,0,3.768-0.169,4.504-0.169
				c0.738,0,1.051,0.169,1.051,0.73c0,0.46-0.078,0.55-2.516,1.01c-1.24,0.221-1.424,0.723-1.559,3.209
				c-0.236,4.453-0.359,9.641-0.359,14.923v9.13c0,0.74-0.246,0.927-0.52,0.927c-0.824,0-1.326-1.339-3.404-3.684l-18.719-21.027
				c-0.096-0.093-0.285-0.036-0.285,0.1v8.492c0,3.624,0.189,6.518,0.189,9.279c0,2.254,0.539,2.969,3.445,3.63
				c1.279,0.267,1.734,0.495,1.734,0.867c0,0.771-0.455,0.771-1.27,0.771c-1.66,0-3.268-0.18-4.975-0.18
				c-1.92,0-3.111,0.18-4.387,0.18c-0.785,0-1.379,0-1.379-0.677c0-0.504,0.547-0.879,1.875-0.962
				c1.703-0.15,2.48-0.421,2.525-2.947c0.053-2.53,0.314-9.451,0.314-10.003v-9.143H266.441z"/>
		</g>
		<g>
			<path d="M315.197,299.061c0-1.113,0-2.623-1.451-2.765c-2.359-0.228-2.543-0.401-2.543-0.907c0-0.562,0.184-0.646,0.924-0.646
				c1.975,0,4.025,0.19,9.648,0.19c2.936,0,6.047-0.19,9.998-0.19c0.93,0,1.02,0.085,1.02,3.814c0,1.737,0,2.8-0.697,2.8
				c-0.734,0-0.779-1.334-1.695-2.853c-0.828-1.383-3.4-2.016-7.307-2.016c-2.01,0-2.096,0.131-2.096,2.662v7.12
				c0,0.916,0.176,1.233,2.924,1.233c2.627,0,3.232-0.596,3.812-1.512c0.728-1.107,1.101-2.576,1.789-2.576
				c0.686,0,0.652,1.2,0.652,1.336c0,1.065-0.383,3.527-0.383,5.278c0,1.882,0.195,2.715,0.195,3.083c0,0.404-0.143,0.63-0.686,0.63
				c-0.555,0-0.65-0.17-1.15-2.34c-0.33-1.373-1.291-2.341-5.328-2.341c-1.699,0-1.891,0.236-1.891,1.386v8.817
				c0,1.691,2.209,2.011,4.324,2.011c1.926,0,2.565-0.32,3.49-0.829c3.209-1.782,3.209-4.585,4.272-4.585
				c0.592,0,0.592,0.451,0.592,0.868c0,0.643-0.555,2.438-0.736,3.547c-0.172,0.999-0.506,2.738-0.865,2.738
				c-3.957,0-5.693-0.18-7.488-0.18h-9.812c-2.258,0-2.9,0.18-3.274,0.18c-0.588,0-1.053-0.127-1.053-0.677
				c0-0.922,1.004-0.922,1.375-0.962c3.031-0.377,3.44-0.504,3.44-5.096L315.197,299.061L315.197,299.061z"/>
			<path d="M361.84,316.555c1.383,3.383,1.568,3.893,3.084,4.822c1.283,0.775,2.393,0.775,2.393,1.283
				c0,0.318-0.197,0.355-1.109,0.355c-1.561,0-2.621-0.18-5.82-0.18h-5.52c-0.412,0-0.686-0.034-0.686-0.631
				c0-0.518,0.418-0.745,1.195-0.828c1.058-0.101,1.926-0.377,1.926-1.196c0-0.46-0.268-1.012-0.459-1.652l-1.887-6.103
				c-0.09-0.333-0.227-0.469-1.236-0.469c-1.145,0-2.67-0.178-5.828-0.178c-1.15,0-1.562,0.594-2.291,2.435
				c-0.832,1.923-2.117,4.535-2.117,5.596c0,1.325,1.059,1.468,2.16,1.568c0.457,0.04,1.377,0.173,1.377,0.867
				c0,0.592-0.416,0.771-1.42,0.771c-0.559,0-1.475-0.18-3.166-0.18c-1.838,0-3.219,0.18-5.248,0.18
				c-0.445,0-0.775-0.037-0.775-0.355c0-0.788,1.281-0.596,2.438-1.283c0.91-0.548,1.607-1.346,2.02-2.208l7.85-16.791
				c1.787-3.821,2.891-7.035,3.943-9.831h0.555L361.84,316.555L361.84,316.555L361.84,316.555z M351.252,302.036
				c-0.1-0.22-0.283-0.22-0.373-0.22c-0.186,0-0.422,0.278-0.543,0.642l-2.535,5.694c-0.186,0.452-0.373,0.879-0.373,1.232
				c0,0.323,1.795,0.372,3.32,0.372c1.781,0,3.111,0,3.111-0.278c0-0.18-0.047-0.362-0.088-0.5L351.252,302.036L351.252,302.036z"/>
			<path d="M393.316,320.5c-0.039,1.188-5.84,3.16-10.902,3.16c-7.4,0-15.344-3.988-15.344-14.32c0-9.823,7.1-15.246,15.916-15.246
				c3.535,0,8.945,0.648,8.988,2.525c0.039,1.471,0.26,2.897,0.26,4.36c0,0.294-0.176,0.416-0.521,0.416
				c-0.4,0-0.484-0.091-1.102-1.42c-1.215-2.699-3.439-4.495-7.229-4.495c-6.645,0-10.824,5.824-10.824,13.818
				c0,8.075,5.924,12.626,10.025,12.626c5.15,0,6.025-0.508,6.025-7.795c0-2.352-0.123-2.993-2.223-3.124
				c-2.881-0.185-2.92-0.239-2.92-0.837c0-0.502,0.221-0.651,1.088-0.651h7.115c1.822,0,3.264-0.178,4.014-0.178
				c0.789,0,1.348,0,1.348,0.69c0,0.458-0.172,0.642-1.916,0.976c-1.264,0.212-1.623,0.586-1.662,2.834L393.316,320.5L393.316,320.5
				z"/>
			<path d="M403.363,298c0-0.366-0.652-1.602-2.449-1.602c-1.594,0-1.83-0.46-1.83-0.918c0-0.511,0.289-0.738,0.822-0.738
				c2.029,0,4.045,0.19,6.078,0.19c2.014,0,4.027-0.19,6.047-0.19c0.965,0,1.289,0.085,1.289,0.865c0,0.331-0.289,0.689-1.01,0.791
				c-2.299,0.271-3.539,0.51-3.539,1.691v20.526c0,2.34,0.227,2.578,1.289,2.578h3.221c6.979,0,7.988-5.001,9.041-5.001
				c0.314,0,0.627,0.12,0.627,0.99c0,1.564-0.818,5.832-1.652,5.832c-3.557,0-9.955-0.18-13.215-0.18
				c-2.064,0-5.041,0.18-7.576,0.18c-1.186,0-1.652,0-1.652-0.771c0-0.731,1.432-0.784,2.951-1.05
				c1.412-0.238,1.559-0.479,1.559-5.522V298H403.363z"/>
			<path d="M429.793,299.061c0-1.113,0-2.623-1.463-2.765c-2.342-0.228-2.523-0.401-2.523-0.907c0-0.562,0.182-0.646,0.916-0.646
				c1.973,0,4.053,0.19,9.652,0.19c2.928,0,6.055-0.19,9.996-0.19c0.92,0,1.016,0.085,1.016,3.814c0,1.737,0,2.8-0.689,2.8
				c-0.73,0-0.785-1.334-1.711-2.853c-0.824-1.383-3.385-2.016-7.281-2.016c-2.02,0-2.107,0.131-2.107,2.662v7.12
				c0,0.916,0.178,1.233,2.93,1.233c2.613,0,3.213-0.596,3.803-1.512c0.734-1.107,1.113-2.576,1.799-2.576
				c0.678,0,0.643,1.2,0.643,1.336c0,1.065-0.365,3.527-0.365,5.278c0,1.882,0.178,2.715,0.178,3.083c0,0.404-0.137,0.63-0.701,0.63
				c-0.539,0-0.625-0.17-1.137-2.34c-0.316-1.373-1.287-2.341-5.315-2.341c-1.715,0-1.883,0.236-1.883,1.386v8.817
				c0,1.691,2.201,2.011,4.305,2.011c1.938,0,2.576-0.32,3.49-0.829c3.217-1.782,3.217-4.585,4.275-4.585
				c0.588,0,0.588,0.451,0.588,0.868c0,0.643-0.539,2.438-0.732,3.547c-0.184,0.999-0.504,2.738-0.871,2.738
				c-3.945,0-5.695-0.18-7.473-0.18h-9.834c-2.25,0-2.9,0.18-3.254,0.18c-0.602,0-1.065-0.127-1.065-0.677
				c0-0.922,1.01-0.922,1.381-0.962c3.033-0.377,3.434-0.504,3.434-5.096v-17.218H429.793z"/>
		</g>
	</g>
	<g>
		<path d="M147.198,336.685c8.057,0,13.42,5.752,13.42,11.901c0,6.146-5.364,11.914-13.42,11.914
			c-8.058,0-13.431-5.769-13.431-11.914C133.767,342.436,139.14,336.685,147.198,336.685L147.198,336.685L147.198,336.685z
			 M147.198,359.229c4.8,0,8.219-3.992,8.219-10.644c0-7.624-3.419-10.643-8.219-10.643c-4.807,0-8.217,3.02-8.217,10.643
			C138.98,355.237,142.391,359.229,147.198,359.229L147.198,359.229z"/>
		<path d="M166.214,340.418c0.039-1.124-0.141-1.672-1.14-1.672c-2.29,0-2.322-0.186-2.322-0.631c0-0.736,0.623-0.771,1.292-0.771
			h9.053c0.677,0,0.773,0.182,0.773,0.668c0,0.377-0.095,0.444-1.252,0.509c-1.808,0.039-2.041,0.152-2.067,3.304l-0.147,9.863
			c-0.115,6.22,2.437,7.405,6.589,7.405c3.687,0,7.211-1.406,7.276-5.543l0.189-12.466c0.044-1.367-0.115-1.966-2.484-2.563
			c-1.139-0.281-1.335-0.362-1.335-0.694c0-0.373,0.161-0.629,0.716-0.629c0.517,0,1.17,0.146,1.771,0.146h5.7
			c0.299,0,0.299,0.265,0.299,0.412c0,0.446-0.082,0.483-1.194,0.765c-1.582,0.455-2.07,0.891-2.11,2.563l-0.22,11.788
			c-0.114,5.259-3.137,7.627-9.316,7.627c-3.069,0-10.398-0.795-10.283-6.914L166.214,340.418L166.214,340.418z"/>
		<path d="M211.306,337.859c3.545,0,2.324-1.705,3.324-1.705c0.297,0,0.449,0.23,0.449,1.044c0,5.323-0.228,5.697-0.713,5.697
			c-0.281,0-0.436-0.23-0.551-0.591c-0.553-2.373-1.289-3.039-6.437-3.039c-1.551,0-1.759,0.147-1.759,0.893v15.907
			c0,1.797,0.177,2.584,1.22,2.584c2.171,0,2.794,0.293,2.794,0.772c0,0.528-0.369,0.548-1.066,0.548
			c-1.142,0-3.879-0.138-5.027-0.138c-1.776,0-3.589,0.28-5.364,0.28c-0.748,0-0.816-0.162-0.816-0.469
			c0-0.811,1.923-0.486,3.033-0.994c0.415-0.189,0.846-1.478,0.846-2.108v-15.128c0-2.001-0.066-2.064-2.847-2.148
			c-5.355-0.146-5.508,4.073-6.729,4.073c-0.436,0-0.517-0.19-0.517-0.416c0-0.923,0.99-3.357,1.664-5.397
			c0.335-0.994,0.482-1.142,0.898-1.142c0.99,0-0.388,1.475,3.614,1.475h13.984V337.859z"/>
		<path d="M225.185,346.41c0,0.666,0.259,0.911,1.471,0.911c3.663,0,4.545-0.733,4.916-1.43c0.553-1.071,0.602-1.891,1.117-1.891
			c0.549,0,0.667,0.074,0.667,4.557c0,3.372-0.053,3.499-0.64,3.499c-0.406,0-0.543-0.657-0.809-1.402
			c-0.365-1.059-0.927-2.068-4.396-2.068c-2.149,0-2.326,0.148-2.326,1.369v6.168c0,1.898,0.468,2.148,2.875,2.526
			c1.407,0.214,1.474,0.398,1.474,0.772c0,0.48-0.102,0.548-0.996,0.548c-1.805,0-3.582-0.138-5.393-0.138
			c-1.74,0-3.517,0.138-5.26,0.138c-0.471,0-0.62-0.214-0.62-0.613c0-0.523,0.249-0.631,2.323-0.707
			c0.524-0.035,0.997-0.189,0.997-1.565c0-5.533,0.229-11.123,0.229-16.666c0-1.415-0.447-1.857-1.524-1.896
			c-1.437-0.036-1.477-0.246-1.477-0.662c0-0.515,0.343-0.661,1.409-0.661c1.845,0,3.658,0.146,5.33,0.146
			c2.104,0,7.836-0.146,9.458-0.146c1.455,0,1.71,0.034,1.71,1.739c0,3.769-0.073,3.793-0.629,3.793
			c-0.485,0-0.514-1.282-1.03-2.176c-1.076-1.848-4.702-2.033-6.18-2.033c-2.331,0-2.695,0.109-2.695,2.44L225.185,346.41
			L225.185,346.41z"/>
		<path d="M242.713,340.598c0-1.518-0.263-1.998-1.782-2.076c-0.919-0.036-1.108-0.216-1.108-0.662c0-0.436,0.189-0.661,1.037-0.661
			c0.894,0,1.899,0.146,3.693,0.146c3.002,0,3.444-0.146,4.659-0.146c0.888,0,1.044,0.107,1.044,0.436
			c0,0.344-0.299,0.606-1.151,0.672c-1.882,0.151-2.032,0.368-2.032,1.769v16.269c0,1.927,0.661,2.009,1.992,2.306
			c0.784,0.184,1.221,0.293,1.221,0.885c0,0.333-0.069,0.435-0.839,0.435c-1.009,0-2.855-0.138-5.555-0.138
			c-2.109,0-3.264,0.138-4.288,0.138c-0.556,0-0.629-0.265-0.629-0.689c0-0.522,0.144-0.555,1.622-0.631
			c1.256-0.071,2.118-0.114,2.118-2.923v-15.13H242.713z"/>
		<path d="M273.14,337.859c3.552,0,2.327-1.705,3.333-1.705c0.283,0,0.444,0.23,0.444,1.044c0,5.323-0.226,5.697-0.71,5.697
			c-0.288,0-0.446-0.23-0.548-0.591c-0.559-2.373-1.303-3.039-6.438-3.039c-1.553,0-1.774,0.147-1.774,0.893v15.907
			c0,1.797,0.186,2.584,1.225,2.584c2.175,0,2.807,0.293,2.807,0.772c0,0.528-0.366,0.548-1.067,0.548
			c-1.152,0-3.891-0.138-5.032-0.138c-1.779,0-3.586,0.28-5.361,0.28c-0.74,0-0.819-0.162-0.819-0.469
			c0-0.811,1.933-0.486,3.034-0.994c0.412-0.189,0.848-1.478,0.848-2.108v-15.128c0-2.001-0.067-2.064-2.837-2.148
			c-5.361-0.146-5.519,4.073-6.732,4.073c-0.451,0-0.517-0.19-0.517-0.416c0-0.923,0.996-3.357,1.658-5.397
			c0.332-0.994,0.483-1.142,0.887-1.142c0.999,0-0.372,1.475,3.62,1.475h13.979V337.859z"/>
		<path d="M299.475,337.859c3.559,0,2.331-1.705,3.333-1.705c0.293,0,0.456,0.23,0.456,1.044c0,5.323-0.23,5.697-0.722,5.697
			c-0.3,0-0.44-0.23-0.543-0.591c-0.56-2.373-1.299-3.039-6.439-3.039c-1.565,0-1.77,0.147-1.77,0.893v15.907
			c0,1.797,0.177,2.584,1.215,2.584c2.176,0,2.809,0.293,2.809,0.772c0,0.528-0.373,0.548-1.079,0.548
			c-1.147,0-3.876-0.138-5.026-0.138c-1.766,0-3.571,0.28-5.36,0.28c-0.736,0-0.809-0.162-0.809-0.469
			c0-0.811,1.919-0.486,3.022-0.994c0.406-0.189,0.857-1.478,0.857-2.108v-15.128c0-2.001-0.083-2.064-2.847-2.148
			c-5.372-0.146-5.519,4.073-6.734,4.073c-0.435,0-0.509-0.19-0.509-0.416c0-0.923,1-3.357,1.661-5.397
			c0.337-0.994,0.476-1.142,0.892-1.142c0.99,0-0.372,1.475,3.621,1.475h13.972V337.859z"/>
		<path d="M308.99,340.677c0-0.9,0-2.116-1.179-2.22c-1.893-0.182-2.044-0.342-2.044-0.744c0-0.44,0.15-0.515,0.742-0.515
			c1.591,0,3.261,0.146,7.765,0.146c2.366,0,4.891-0.146,8.069-0.146c0.731,0,0.804,0.074,0.804,3.062c0,1.401,0,2.261-0.554,2.261
			c-0.588,0-0.622-1.073-1.356-2.298c-0.677-1.104-2.745-1.624-5.889-1.624c-1.624,0-1.702,0.107-1.702,2.151v5.729
			c0,0.742,0.142,0.999,2.365,0.999c2.114,0,2.588-0.484,3.074-1.221c0.599-0.882,0.877-2.072,1.439-2.072
			c0.545,0,0.511,0.971,0.511,1.073c0,0.846-0.282,2.846-0.282,4.253c0,1.524,0.146,2.176,0.146,2.48
			c0,0.334-0.119,0.524-0.559,0.524c-0.447,0-0.516-0.162-0.927-1.896c-0.25-1.108-1.035-1.887-4.283-1.887
			c-1.372,0-1.519,0.191-1.519,1.111v7.102c0,1.366,1.779,1.631,3.468,1.631c1.559,0,2.084-0.265,2.813-0.67
			c2.594-1.446,2.594-3.704,3.44-3.704c0.491,0,0.491,0.372,0.491,0.71c0,0.515-0.456,1.949-0.595,2.837
			c-0.155,0.827-0.413,2.219-0.709,2.219c-3.182,0-4.581-0.138-6.027-0.138h-7.902c-1.825,0-2.34,0.138-2.638,0.138
			c-0.465,0-0.845-0.102-0.845-0.548c0-0.735,0.809-0.735,1.099-0.772c2.44-0.297,2.782-0.419,2.782-4.108v-13.863H308.99z"/>
		<path d="M330.295,340.196c0-1.116-0.643-1.597-1.304-1.675c-2.103-0.216-2.226-0.246-2.226-0.694c0-0.522,0.186-0.629,0.755-0.629
			c1.587,0,5.213,0.146,5.913,0.146c0.59,0,4.103-0.146,5.69-0.146c3.254,0,7.136,1.287,7.136,5.205c0,4.819-4.397,4.918-4.397,5.67
			c0,0.293,0.113,0.484,0.344,0.853l4.65,7.992c0.632,1.023,1.479,1.586,2.268,1.808c1.471,0.396,1.613,0.432,1.613,0.696
			c0,0.283-0.029,0.41-0.361,0.41h-6.554c-0.254,0-0.55-0.127-0.701-0.41c-0.666-1.373-1.396-2.773-1.632-3.209
			c-3.386-6.847-4.208-7.366-5.58-7.366c-1.109,0-1.256,0.147-1.256,3.083v4.097c0,1.882,0.338,2.552,1.067,2.623
			c2.143,0.214,2.525,0.369,2.525,0.817c0,0.4-0.19,0.503-0.598,0.503c-1.304,0-2.079-0.138-5.328-0.138h-5.061
			c-0.705,0-0.818-0.037-0.818-0.455c0-0.47,0.324-0.651,1.152-0.728c0.707-0.071,2.44-0.146,2.44-1.702
			c0-0.734,0.261-1.955,0.261-8.243v-8.508H330.295L330.295,340.196z M334.654,346.901c0,0.696,0.186,0.775,0.661,0.775
			c3.29,0,6.602-0.197,6.602-4.671c0-4.003-3.63-4.616-5.968-4.616c-1.148,0-1.295,0.842-1.295,2.537V346.901L334.654,346.901z"/>
		<path d="M366.648,341.825c0,0.4-0.145,0.578-0.469,0.578c-0.938,0-0.823-4.391-5.258-4.391c-3.324,0-4.293,2.146-4.293,3.845
			c0,4.104,11.727,3.52,11.727,11.518c0,2.612-1.26,7.125-8.326,7.125c-3.216,0-6.909-0.795-6.909-2.368
			c0-1.67,0.034-4.669,0.876-4.669c0.867,0,0.49,1.774,1.786,3.376c0.887,1.103,2.955,2.318,5.216,2.318
			c3.104,0,4.47-1.882,4.47-3.804c0-5.654-11.505-4.699-11.505-12.431c0-3.773,2.482-6.238,7.699-6.238
			c2.664,0,4.986,0.514,4.986,1.518L366.648,341.825L366.648,341.825z"/>
	</g>
	<g>
		<path d="M170.904,153.203c0.58,3.044,0.323,6.928,2.609,8.267c0.02-4.214-1.802-13.346,1.088-16.533
			c0.219,4.422,0.53,8.753,2.828,11.094c0.262-4.588-1.176-12.195,2.393-14.573c-0.862,10.504,2.233,18.547,9.136,21.969
			c0.312-0.049-0.203-1.083,0-1.74c8.362,9.666,20.703,13.744,29.583,22.622c8.826,8.825,11.044,22.845,21.316,30.669
			c9.716-3.373,11.445-14.186,14.79-23.927c2.434-7.074,6.484-13.992,11.748-19.142c5.258-5.146,12.877-8.3,19.141-11.747
			c6.469-3.559,13.504-6.83,19.145-11.527c1.25-1.044,1.959-2.87,4.131-3.481c-0.127,4.377-3.715,7.158-5.438,10.66
			c3.941-0.943,7.027-3.812,10.006-6.309c1.572-1.319,3.02-2.602,4.35-4.133c1.262-1.452,2.092-3.417,3.916-4.351
			c0.176,5.272-3.127,8.783-6.09,11.746c-2.293,2.293-5.318,3.958-7.18,6.527c2.389,0.768,4.576-1.068,6.308-2.175
			c3.805-2.431,6.996-5.321,10.225-8.482c1.57-1.538,2.998-3.499,5-4.351c-0.68,9.034-8.52,12.793-13.268,18.489
			c5.754-1.284,11.25-5.858,15.664-8.482c-1.975,8.539-11.828,9.2-17.402,14.138c2.834,1.479,5.863-0.53,8.266-1.523
			c2.664-1.102,5.129-2.479,7.83-3.044c-0.932,8.058-11.248,8.616-16.969,12.615c3.627,1.551,7.936-1.552,11.748-1.959
			c-0.94,2.499-3.455,3.697-5.873,4.787c-2.492,1.121-5.57,1.15-7.395,3.046c0.576,1.71,3.137,0.459,4.565,0.434
			c-0.256,3.295-4.861,2.244-7.178,3.48c0.656,1.159,2.574,1.052,3.918,1.523c-0.977,3.447-8.189,0.656-9.791,3.481
			c0.473,1.268,2.732,0.748,3.918,1.303c-1.135,2.347-6.486,0.479-7.613,2.83c0.022,1.071,1.824,1.5,1.738,1.958
			c-0.734,1.948-5.609-0.243-6.09,1.958c0.1,0.841,0.975,0.91,1.522,1.305c-0.445,1.944-3.721,1.063-4.785,2.392
			c-0.27,1.26,1.305,0.919,1.523,1.088c0.002,1.962-2.164,1.752-2.826,3.045c-0.215,1.444,1.252,1.21,1.086,2.61
			c-0.994,0.206-2.586-0.132-2.828,1.305c0.256,1.34,1.465,1.725,1.088,3.698c-1.215-0.25-2.357-0.144-2.826,0.87
			c0.268,1.255,1.969,1.076,1.52,3.045c-1.023-0.292-2.465-0.302-2.609,0.871c0.336,1.695,2.572,1.489,2.176,3.915
			c-1.637-0.525-3.586-0.133-4.131,1.088c0.348,1.465,1.754,1.871,1.522,3.914c-0.582,0.421-1.297-0.866-2.174-0.218
			c-0.246,1.167,1.578,2.672,0.652,4.569c-1.103-0.203-1.293-1.317-2.83-1.088c-0.646,1.642,1.223,2.914,0.434,4.785
			c-0.551,0.218-1.963-1.047-2.826,0c0.045,1.768,0.881,2.745,0.654,4.787c-1.854,0.258-2.359-0.832-3.699-1.089
			c-0.627,1.052,0.506,2.935-0.217,4.133c-1.021,0.24-3.113-1.996-4.568-0.653c-0.51,1.469,1.135,1.64,0.654,2.393
			c-6.103,0.154-6.582-5.311-11.312-6.527c3.934,8.038,8.018,14.589,14.574,19.578c3.766,2.869,10.701,4.222,10.441,11.312
			c-2.272,0.048-2.26,2.379-4.568,2.393c-0.707,0.67-0.793,1.961-1.738,2.393c-1.166,0.074-1.793-0.386-2.613-0.653
			c-1.16,0.145-1.273,1.335-2.172,1.739c-2.643-1.496-3.906,1.578-5.877,1.74c-1.002,0.085-1.602-0.923-2.826-1.087
			c-1.353-0.183-2.818,0.994-3.918,0.87c-1.758-0.199-3.162-3.749-6.088-1.523c-1.309-0.287-1.248-1.941-2.395-2.392
			c-0.793-0.146-0.832,0.471-1.52,0.434c-0.887-0.546-1.678-1.915-3.264-1.087c-1.052-0.592-1.174-2.609-3.046-1.739
			c-0.296-0.575-0.257-1.483-0.435-2.179c-0.376-0.646-1.345,0.314-1.523-0.214c-1.046-5.388,6.47-7.37,4.351-12.4
			c-2.638,0.917-3.911,3.195-4.351,6.309c-0.832,0.104-0.682-0.77-1.088-1.089c-0.844,1.621-1.476,3.455-1.523,5.873
			c-0.699-0.46-0.97-1.349-1.304-2.176c-1.899,1.438-3.319,3.355-4.133,5.875c-0.66-0.5-0.348-1.975-1.306-2.179
			c-2.131,0.509-2.168,3.195-1.521,4.352c1.311,2.353,8.624,2.963,5.22,7.615c-0.444-0.788-0.581-1.884-1.305-2.393
			c-2.267,0.601-3.972-0.855-5.221-1.958c-4.426-0.292-7.298,0.969-7.613,4.785c-1.192-0.46-1.775-2.907-0.87-4.132
			c-1.455,0.067-2.328,0.719-2.61,1.956c-1.24-0.534-1.145-2.253-0.435-3.263c-1.696-0.201-2.058,1.945-3.045,1.74
			c-1.381-4.435,4.811-4.647,8.266-5.655c-0.372-1.426-1.581-0.782-2.827-1.306c-2.971-1.246-7.25-5.854-9.572-1.742
			c-1.269-0.867-0.406-3.045,0.436-3.696c-2.048-0.521-2.939,1.263-3.699,1.309c-0.108-1.779,0.733-2.604,1.524-3.483
			c-1.067-0.78-2.858-0.048-3.915,0.436c1.131-3.867,4.841-2.587,7.83-1.303c1.099,0.469,2.711,1.854,3.915,1.739
			c1.953-0.186,3.399-5.64,4.351-8.485c1.654-4.944,4.615-9.254,3.915-16.097c-0.546-5.331-4.305-8.371-9.572-6.742
			c-0.556,0.171-0.957,0.639-1.522,0.869c-2.433,0.992-6.163,0.227-8.048,2.176c-0.781-0.802,0.757-1.911-0.218-2.393
			c-1.717,0.384-2.107,2.1-2.394,3.915c-2.407-1.463-2.476-6.382-0.216-8.048c-0.212-3.315,0.964-5.084,3.045-6.743
			c3.061-2.44,10.131-3.484,10.658-6.309c0.647-3.465-4.27-9.375-5.873-11.093c-8.251-8.846-21.798-12.708-33.064-17.836
			c0.637-0.454,2.096-0.082,2.827-0.436c-1.85-2.208-5.053-3.066-6.306-5.873c0.958,0.057,1.682,0.346,2.827,0.217
			c-1.994-2.359-6.433-4.153-7.831-7.831c1.396-0.018,2.785,1.852,4.567,2.176c-3.636-3.47-6.721-9.917-6.742-16.751
			C169.81,157.291,169.865,154.571,170.904,153.203z M224.414,267.185c1.624,0.697,1.943,2.699,2.61,4.352
			c1.807-1.559,3.288-4.505,2.393-8.05C226.748,263.718,225.676,265.548,224.414,267.185z"/>
	</g>
</g>
</svg>
